<svg xmlns="http://www.w3.org/2000/svg" width="40" height="40"><path fill="#009688" d="M4.8 34.4h30.4a4.8 4.8 0 0 1 4.8 4.8v.8H0v-.8a4.8 4.8 0 0 1 4.8-4.8zM1.8 0h4.1a.6.6 0 0 1 .6.6v2.2h2.6V.6a.6.6 0 0 1 .6-.6h4.4a.6.6 0 0 1 .6.6v2.2h2.6V.6a.6.6 0 0 1 .6-.6H22a.6.6 0 0 1 .6.6V6a2.3 2.3 0 0 1-2.3 2.3H3.5A2.3 2.3 0 0 1 1.2 6V.6a.6.6 0 0 1 .6-.6zm15.1 10.2H21a.6.6 0 0 1 .6.6V13h2.6v-2.2a.6.6 0 0 1 .6-.6h4.4a.6.6 0 0 1 .6.6V13h2.6v-2.2a.6.6 0 0 1 .6-.6h4.1a.6.6 0 0 1 .6.6v5.4a2.3 2.3 0 0 1-2.3 2.3H18.6a2.3 2.3 0 0 1-2.3-2.3v-5.4a.6.6 0 0 1 .6-.6zm13.7 23.3v-4.7a3.6 3.6 0 1 0-7.2 0v4.7h-5.2v-14h17.6v14h-5.2zM15.935 9.4a1.7 1.7 0 0 0-.735 1.4v5.4a3.4 3.4 0 0 0 1.9 3.052V33.5h-1.6v-4.7a3.6 3.6 0 1 0-7.2 0v4.7H4.1V9.4h11.835z"/></svg>