<svg xmlns="http://www.w3.org/2000/svg" width="40" height="40" viewBox="0 0 40 40">
  <path fill="#009688" d="M4.8,34.4 L35.2,34.4 C37.8509668,34.4 40,36.5490332 40,39.2 L40,40 L0,40 L0,39.2 C-3.24649801e-16,36.5490332 2.1490332,34.4 4.8,34.4 Z M1.8,1.76894977e-13 L5.9,1.61444191e-12 C6.23137085,1.71179978e-12 6.5,0.26862915 6.5,0.6 L6.5,2.8 L9.1,2.8 L9.1,0.6 C9.1,0.26862915 9.36862915,1.61650033e-12 9.7,1.61879399e-12 L14.1,1.52553525e-12 C14.4313708,1.52871186e-12 14.7,0.26862915 14.7,0.6 L14.7,2.8 L17.3,2.8 L17.3,0.6 C17.3,0.26862915 17.5686292,1.46785174e-12 17.9,1.35065292e-12 L22,0 C22.3313708,-9.74796127e-14 22.6,0.26862915 22.6,0.6 L22.6,6 C22.6,7.27025492 21.5702549,8.3 20.3,8.3 L3.5,8.3 C2.22974508,8.3 1.2,7.27025492 1.2,6 L1.2,0.6 C1.2,0.26862915 1.46862915,6.08718376e-17 1.8,0 Z M16.9,10.2 L21,10.2 C21.3313708,10.2 21.6,10.4686292 21.6,10.8 L21.6,13 L24.2,13 L24.2,10.8 C24.2,10.4686292 24.4686292,10.2 24.8,10.2 L29.2,10.2 C29.5313708,10.2 29.8,10.4686292 29.8,10.8 L29.8,13 L32.4,13 L32.4,10.8 C32.4,10.4686292 32.6686292,10.2 33,10.2 L37.1,10.2 C37.4313708,10.2 37.7,10.4686292 37.7,10.8 L37.7,16.2 C37.7,17.4702549 36.6702549,18.5 35.4,18.5 L18.6,18.5 C17.3297451,18.5 16.3,17.4702549 16.3,16.2 L16.3,10.8 C16.3,10.4686292 16.5686292,10.2 16.9,10.2 Z M30.6,33.5 L30.6,28.8 C30.6,26.8117749 28.9882251,25.2 27,25.2 C25.0117749,25.2 23.4,26.8117749 23.4,28.8 L23.4,33.5 L18.2,33.5 L18.2,19.5 L35.8,19.5 L35.8,33.5 L30.6,33.5 Z M15.9353593,9.4 C15.4911169,9.70667828 15.2,10.2193421 15.2,10.8 L15.2,16.2 C15.2,17.5393732 15.9744619,18.6978611 17.0999997,19.2520778 L17.1,19.252079 L17.1,33.5 L15.5,33.5 L15.5,28.8 C15.5,26.8117749 13.8882251,25.2 11.9,25.2 C9.9117749,25.2 8.3,26.8117749 8.3,28.8 L8.3,33.5 L4.1,33.5 L4.1,9.4 L15.9353593,9.4 Z"/>
</svg>
